<?xml version="1.0" encoding="utf-8"?>
<!-- Generator: Adobe Illustrator 15.0.0, SVG Export Plug-In . SVG Version: 6.00 Build 0)  -->
<!DOCTYPE svg PUBLIC "-//W3C//DTD SVG 1.1//EN" "http://www.w3.org/Graphics/SVG/1.1/DTD/svg11.dtd">
<svg version="1.1" id="Layer_1" xmlns="http://www.w3.org/2000/svg" xmlns:xlink="http://www.w3.org/1999/xlink" x="0px" y="0px"
	 width="500px" height="616.973px" viewBox="0 0 500 616.973" enable-background="new 0 0 500 616.973" xml:space="preserve">
<polygon fill-rule="evenodd" clip-rule="evenodd" fill="#FFD804" points="108.349,61.342 98.093,38.659 88.23,60.948 62.588,64.104 
	81.327,80.673 76.79,104.736 98.093,93.493 119.986,105.13 115.054,80.673 133.793,63.709 108.349,61.342 "/>
<polygon fill-rule="evenodd" clip-rule="evenodd" fill="#FFD804" points="108.349,61.342 98.093,38.659 88.23,60.948 62.588,64.104 
	81.327,80.673 76.79,104.736 98.093,93.493 119.986,105.13 115.054,80.673 133.793,63.709 108.349,61.342 "/>
<polygon fill-rule="evenodd" clip-rule="evenodd" fill="#FFD804" points="108.349,61.342 98.093,38.659 88.23,60.948 62.588,64.104 
	81.327,80.673 76.79,104.736 98.093,93.493 119.986,105.13 115.054,80.673 133.793,63.709 108.349,61.342 "/>
<polygon fill-rule="evenodd" clip-rule="evenodd" fill="#FFD804" points="108.349,61.342 98.093,38.659 88.23,60.948 62.588,64.104 
	81.327,80.673 76.79,104.736 98.093,93.493 119.986,105.13 115.054,80.673 133.793,63.709 108.349,61.342 "/>
<polygon fill-rule="evenodd" clip-rule="evenodd" fill="#FFD804" points="419.004,61.342 408.75,38.659 398.492,60.948 
	373.441,64.104 392.181,80.673 387.247,104.736 408.355,93.493 430.643,105.13 425.709,80.673 444.253,63.709 419.004,61.342 "/>
<polygon fill-rule="evenodd" clip-rule="evenodd" fill="#FFD804" points="419.004,61.342 408.75,38.659 398.492,60.948 
	373.441,64.104 392.181,80.673 387.247,104.736 408.355,93.493 430.643,105.13 425.709,80.673 444.253,63.709 419.004,61.342 "/>
<polygon fill-rule="evenodd" clip-rule="evenodd" fill="#FFD804" points="419.004,61.342 408.75,38.659 398.492,60.948 
	373.441,64.104 392.181,80.673 387.247,104.736 408.355,93.493 430.643,105.13 425.709,80.673 444.253,63.709 419.004,61.342 "/>
<polygon fill-rule="evenodd" clip-rule="evenodd" fill="#FFD804" points="419.004,61.342 408.75,38.659 398.492,60.948 
	373.441,64.104 392.181,80.673 387.247,104.736 408.355,93.493 430.643,105.13 425.709,80.673 444.253,63.709 419.004,61.342 "/>
<polygon fill-rule="evenodd" clip-rule="evenodd" fill="#FFD804" points="254.898,22.684 244.643,0 234.583,22.684 209.14,25.839 
	227.877,42.604 222.947,66.272 244.247,54.833 266.538,66.668 261.604,42.209 280.344,25.445 254.898,22.684 "/>
<polygon fill-rule="evenodd" clip-rule="evenodd" fill="#FFD804" points="254.898,22.684 244.643,0 234.583,22.684 209.14,25.839 
	227.877,42.604 222.947,66.272 244.247,54.833 266.538,66.668 261.604,42.209 280.344,25.445 254.898,22.684 "/>
<polygon fill-rule="evenodd" clip-rule="evenodd" fill="#FFD804" points="254.898,22.684 244.643,0 234.583,22.684 209.14,25.839 
	227.877,42.604 222.947,66.272 244.247,54.833 266.538,66.668 261.604,42.209 280.344,25.445 254.898,22.684 "/>
<polygon fill-rule="evenodd" clip-rule="evenodd" fill="#FFD804" points="254.898,22.684 244.643,0 234.583,22.684 209.14,25.839 
	227.877,42.604 222.947,66.272 244.247,54.833 266.538,66.668 261.604,42.209 280.344,25.445 254.898,22.684 "/>
<path fill-rule="evenodd" clip-rule="evenodd" fill="#ED1C24" d="M247.405,75.347c-61.934,62.328-141.621,82.447-238.86,60.554
	c-14.99,73.965-10.257,151.086,14.202,231.563c40.238,113.216,114.597,195.662,223.277,246.945l4.93,2.564l4.539-2.564
	c64.496-32.938,120.709-80.671,168.839-143c67.653-101.974,89.941-214.403,66.865-337.875
	C403.816,160.358,322.357,141.225,247.405,75.347L247.405,75.347z M20.97,157.596c88.364,14.005,163.71-5.326,226.435-58.778
	c68.247,56.213,145.366,74.359,231.364,53.452c16.765,122.093-8.481,228.999-74.952,319.926
	c-44.181,54.832-95.858,96.846-154.638,127.419C150.163,555.237,79.354,474.96,36.751,358.982
	C16.041,287.382,10.713,220.516,20.97,157.596L20.97,157.596z"/>
<path fill-rule="evenodd" clip-rule="evenodd" fill="#FFFFFF" d="M247.405,98.818c-62.724,53.452-138.071,72.783-226.435,58.778
	c-10.257,62.919-4.93,129.786,15.781,201.386C79.354,474.96,150.163,555.237,249.179,599.616
	c58.779-30.573,110.457-72.587,154.638-127.419c66.471-90.928,91.717-197.833,74.952-319.926
	C392.771,173.178,315.651,155.032,247.405,98.818L247.405,98.818z M252.729,117.162l8.088,7.496
	c3.552,3.944,12.427,10.849,26.232,21.499c13.806,10.255,39.251,18.737,76.53,24.457c37.083,6.116,72.192,4.34,104.736-4.141
	l5.918,91.52l-0.594,6.51h0.594h-0.594H27.676l-0.395-11.046l5.326-80.672l0.591-3.944l1.579,0.394
	c28.206,4.932,55.228,5.72,80.671,2.762C164.168,170.219,209.928,151.876,252.729,117.162L252.729,117.162z"/>
<path fill-rule="evenodd" clip-rule="evenodd" fill="#ED1C24" d="M260.816,124.657l-8.088-7.496
	c-42.8,34.715-88.561,53.058-137.28,54.833c-25.443,2.958-52.465,2.17-80.671-2.762l0,0l-1.579-0.394l-0.591,3.944l-5.326,80.672
	l0.395,11.046H473.64l0.594-6.51l-5.918-91.52c-32.544,8.481-67.653,10.257-104.736,4.141c-37.279-5.72-62.725-14.202-76.53-24.457
	C273.243,135.506,264.368,128.602,260.816,124.657L260.816,124.657z M319.594,249.118L319.594,249.118h0.395H319.594
	L319.594,249.118z M307.958,249.906v-0.396l0.594,0.396H307.958L307.958,249.906z M312.888,249.51l0.395,1.185h-0.395V249.51
	L312.888,249.51z M319.988,249.51L319.988,249.51h-0.395H319.988L319.988,249.51z M376.201,249.906v-0.396l0.792,0.396H376.201
	L376.201,249.906z M402.832,249.906h-1.183v-0.396L402.832,249.906L402.832,249.906z M55.488,194.284h0.395v0.394L55.488,194.284
	L55.488,194.284z M99.079,187.973l0.394,0.394h-0.394V187.973L99.079,187.973z M122.55,188.761v0.197V188.761L122.55,188.761z"/>
<polygon fill-rule="evenodd" clip-rule="evenodd" fill="#CBCCCE" points="307.958,249.51 307.958,249.906 308.552,249.906 
	307.958,249.51 "/>
<polygon fill-rule="evenodd" clip-rule="evenodd" fill="#CBCCCE" points="376.201,249.51 376.201,249.906 376.993,249.906 
	376.201,249.51 "/>
<polygon fill-rule="evenodd" clip-rule="evenodd" fill="#CBCCCE" points="401.649,249.906 402.832,249.906 401.649,249.51 
	401.649,249.906 "/>
<polygon fill-rule="evenodd" clip-rule="evenodd" fill="#CBCCCE" points="55.882,194.284 55.488,194.284 55.882,194.678 
	55.882,194.284 "/>
<polygon fill-rule="evenodd" clip-rule="evenodd" fill="#CBCCCE" points="99.473,188.367 99.079,187.973 99.079,188.367 
	99.473,188.367 "/>
<path fill-rule="evenodd" clip-rule="evenodd" fill="#ED1C24" d="M87.441,279.689H32.213v27.813
	c9.27,49.309,26.825,94.278,52.466,134.121h2.762V279.689L87.441,279.689z"/>
<path fill-rule="evenodd" clip-rule="evenodd" fill="#ED1C24" d="M185.864,278.901h-55.228v218.347
	c15.583,16.37,32.546,31.558,51.284,45.761h3.944V278.901L185.864,278.901z"/>
<polygon fill-rule="evenodd" clip-rule="evenodd" fill="#ED1C24" points="276.397,571.212 276.397,278.901 220.578,278.901 
	220.578,571.212 248.785,588.176 276.397,571.212 "/>
<path fill-rule="evenodd" clip-rule="evenodd" fill="#ED1C24" d="M369.496,278.901H314.27v264.107h4.341
	c18.341-14.203,35.698-29.391,50.886-45.761V278.901L369.496,278.901z"/>
<path fill-rule="evenodd" clip-rule="evenodd" fill="#ED1C24" d="M466.146,277.125h-55.229v162.133h2.764
	c25.444-40.042,42.802-84.616,52.466-134.125V277.125L466.146,277.125z"/>
<path fill-rule="evenodd" clip-rule="evenodd" fill="#FFFFFF" d="M346.222,214.206l-20.906-39.055l-18.54-6.706l28.4,49.311
	l-15.977,26.43h-0.394l-3.154,4.932h0.395l-0.395,0.393h16.37l14.2-26.233l17.556,27.023h14.2l-19.524-30.177l23.076-34.912
	l-16.569-1.184L346.222,214.206L346.222,214.206z M373.048,249.906h-0.789v-0.396L373.048,249.906L373.048,249.906z"/>
<polygon fill-rule="evenodd" clip-rule="evenodd" fill="#CBCCCE" points="372.259,249.906 373.048,249.906 372.259,249.51 
	372.259,249.906 "/>
<path fill-rule="evenodd" clip-rule="evenodd" fill="#FFFFFF" d="M251.94,140.831l-1.382,3.155c-0.984,2.959-1.38,7.102-1.38,12.23
	v92.901h0.396v0.393h12.424v-29.98l25.05,2.762l9.863,28.403h12.425l-0.395-1.185c-9.466-31.163-19.723-60.749-30.375-89.941
	l-2.17-6.312c-4.142-8.876-11.042-13.807-19.523-15.583c-1.976,0.396-3.552,1.381-4.539,3.156H251.94L251.94,140.831z
	 M263.774,157.596l4.142,1.774l12.033,40.633h0.395l1.382,4.93l-16.569-1.38L263.774,157.596L263.774,157.596z M304.801,249.906
	h-0.788v-0.396L304.801,249.906L304.801,249.906z"/>
<polygon fill-rule="evenodd" clip-rule="evenodd" fill="#CBCCCE" points="304.013,249.906 304.801,249.906 304.013,249.51 
	304.013,249.906 "/>
<path fill-rule="evenodd" clip-rule="evenodd" fill="#FFFFFF" d="M384.683,249.51v0.396l15.191,0.394l4.337-12.82h21.498
	l7.104,12.82h11.636l-23.274-54.242c-3.946-7.1-8.481-10.256-13.018-9.861c-3.552,0.394-6.116,2.564-8.282,6.114h-0.199l-2.17,5.129
	L384.683,249.51L384.683,249.51z M422.161,226.237l-14.793-1.382l3.548-21.301L422.161,226.237L422.161,226.237z M397.899,249.51
	l0.987,0.396h-0.987V249.51L397.899,249.51z"/>
<polygon fill-rule="evenodd" clip-rule="evenodd" fill="#CBCCCE" points="398.887,249.906 397.899,249.51 397.899,249.906 
	398.887,249.906 "/>
<path fill-rule="evenodd" clip-rule="evenodd" fill="#FFFFFF" d="M51.741,194.284c-0.79,1.38-1.184,2.958-0.79,4.734v51.873v0.395
	h8.876v-47.338l28.6,44.972l0.789,0.59c4.143,2.958,8.481,2.958,12.822,0l0.986-0.59c1.776-3.552,2.761-7.496,2.761-12.033v-50.69
	l-10.256,2.17h-0.394v40.63l0.394,0.396v8.876l-27.615-43.196l-2.367-2.564c-3.156-1.971-6.508-2.367-9.664-0.591l-1.38,0.591
	l-2.367,2.17L51.741,194.284L51.741,194.284z"/>
<polygon fill-rule="evenodd" clip-rule="evenodd" fill="#CBCCCE" points="51.741,194.284 52.135,194.678 52.135,194.284 
	51.741,194.284 "/>
<polygon fill-rule="evenodd" clip-rule="evenodd" fill="#CBCCCE" points="95.528,188.367 95.134,187.973 95.134,188.367 
	95.528,188.367 "/>
<path fill-rule="evenodd" clip-rule="evenodd" fill="#FFFFFF" d="M182.709,177.321l-0.79,5.326c-2.564,17.751-2.564,36.489,0,56.016
	v0.591c2.17,4.932,4.537,8.481,7.496,10.256c1.38,0.79,2.761,1.185,4.141,1.185h44.972v-19.133l-46.748,2.761v-52.07l46.748-23.274
	v-21.303l-48.719,30.771c-2.958,1.381-5.129,3.55-6.114,6.706h-0.396L182.709,177.321L182.709,177.321z"/>
<polygon fill-rule="evenodd" clip-rule="evenodd" fill="#CBCCCE" points="118.606,188.761 119,188.958 118.606,188.761 "/>
<path fill-rule="evenodd" clip-rule="evenodd" fill="#FFFFFF" d="M119,188.958l-0.394-0.197l-1.185,1.776
	c-1.38,1.971-2.367,4.93-2.761,8.085v39.252l0.789,2.564c1.381,4.141,3.749,6.903,7.693,9.071l5.326,1.776h43.196v-16.567
	l-45.563,1.774v-10.652l45.563-3.944v-15.582l-45.958,5.326v-14.399l45.958-6.509v-15.78l-45.563,8.481
	C123.142,184.817,120.774,186.591,119,188.958L119,188.958z"/>
</svg>
